<?xml version="1.0" encoding="UTF-8" standalone="no"?>
<svg
   width="250"
   height="250"
   viewBox="0 0 66.146 66.146"
   xml:space="preserve"
   version="1.1"
   id="svg188"
   sodipodi:docname="favicon.svg"
   inkscape:version="1.2.2 (b0a84865, 2022-12-01)"
   xmlns:inkscape="http://www.inkscape.org/namespaces/inkscape"
   xmlns:sodipodi="http://sodipodi.sourceforge.net/DTD/sodipodi-0.dtd"
   xmlns="http://www.w3.org/2000/svg"
   xmlns:svg="http://www.w3.org/2000/svg"><defs
   id="defs192" /><sodipodi:namedview
   id="namedview190"
   pagecolor="#ffffff"
   bordercolor="#000000"
   borderopacity="0.25"
   inkscape:showpageshadow="2"
   inkscape:pageopacity="0.0"
   inkscape:pagecheckerboard="0"
   inkscape:deskcolor="#d1d1d1"
   showgrid="false"
   inkscape:zoom="0.944"
   inkscape:cx="60.911017"
   inkscape:cy="126.05932"
   inkscape:window-width="1440"
   inkscape:window-height="690"
   inkscape:window-x="0"
   inkscape:window-y="25"
   inkscape:window-maximized="0"
   inkscape:current-layer="svg188" />
    <path
   style="fill:#1eaf4c;fill-opacity:1;stroke:none;stroke-width:1.57621"
   d="m 14.026245,17.922475 a 4.7512779,4.7512779 0 0 0 -4.7629906,4.76299 v 38.094813 a 4.7512779,4.7512779 0 0 0 4.7629906,4.76299 h 38.09351 a 4.7512779,4.7512779 0 0 0 4.762991,-4.76299 V 22.685465 a 4.7512779,4.7512779 0 0 0 -4.762991,-4.76299 z"
   id="path182" />
    <path
   style="color:#000000;fill:#fbbc05;fill-opacity:1;stroke-width:1.1304;-inkscape-stroke:none"
   d="m 33.074301,2.6067288 c -4.451964,0 -8.480985,0.4424636 -11.496244,1.1972544 -1.508281,0.3773954 -2.758891,0.819859 -3.745324,1.4015684 -0.985132,0.5830108 -1.909101,1.4275957 -1.909101,2.706836 0,1.2792403 0.923969,2.1238254 1.909101,2.7068364 0.986433,0.58301 2.238345,1.025474 3.745324,1.401568 3.015259,0.754791 7.04428,1.197254 11.496244,1.197254 4.450663,0 8.478383,-0.442463 11.493642,-1.197254 1.506979,-0.377395 2.761494,-0.819859 3.746626,-1.401568 0.985132,-0.583011 1.907799,-1.4275961 1.907799,-2.7068364 0,-1.2792403 -0.922667,-2.1238252 -1.907799,-2.706836 C 47.329437,4.6225408 46.076224,4.1800772 44.567943,3.8039832 41.552684,3.0491924 37.526266,2.6067288 33.074301,2.6067288 Z m 0,2.7159455 c 4.268472,0 8.136125,0.4424636 10.835152,1.1165699 1.350816,0.3383545 2.410126,0.7443799 3.023068,1.1061589 0.611641,0.361779 0.5726,0.5556822 0.5726,0.3669845 0,-0.1886977 0.03904,0.0039 -0.5726,0.3669845 -0.611641,0.361779 -1.672252,0.7678044 -3.023068,1.1061589 -2.699027,0.674106 -6.56668,1.11657 -10.835152,1.11657 -4.268472,0 -8.136124,-0.442464 -10.836453,-1.11657 C 20.888334,9.0471765 19.827723,8.6411511 19.216082,8.2793721 18.60314,7.9162917 18.640879,7.7236899 18.640879,7.9123876 c 0,0.1886977 -0.03904,-0.0039 0.575203,-0.3669845 0.611641,-0.361779 1.672252,-0.7678044 3.021766,-1.1061589 2.700329,-0.6741063 6.567981,-1.1165699 10.836453,-1.1165699 z"
   id="path184" />
    <path
   style="fill:#ffffff;fill-opacity:1;stroke:none;stroke-width:1.81795"
   d="m 48.291144,30.670632 -15.186911,0.03123 -15.188213,0.02993 -0.03123,12.206789 -0.03123,12.205488 H 48.292446 V 42.907352 Z m -27.879109,2.55848 h 11.44419 v 4.747374 h -11.44419 v -2.373687 z m 13.879041,0 h 11.565217 v 4.747374 H 40.15502 c -3.136286,0 -5.739013,-0.03644 -5.783259,-0.08199 -0.04425,-0.04425 -0.08069,-1.112666 -0.08069,-2.373687 z m -13.879041,7.183526 h 11.44419 v 5.113057 h -11.44419 v -2.557179 z m 13.879041,0 h 11.565217 v 5.113057 H 40.15502 c -3.136286,0 -5.739013,-0.03644 -5.783259,-0.08068 -0.04425,-0.04555 -0.08069,-1.197255 -0.08069,-2.558481 z m -13.879041,7.547908 h 11.44419 v 4.747374 h -11.44419 v -2.373687 z m 13.879041,0 H 45.856293 V 52.70792 H 40.15502 c -3.136286,0 -5.739013,-0.03644 -5.783259,-0.08068 -0.04425,-0.04555 -0.08069,-1.113967 -0.08069,-2.374989 z"
   id="path186" />
</svg>
